<svg width="44" height="44" xmlns="http://www.w3.org/2000/svg"><path d="M14.877 21.435v-8.47h3.503v-2.006H9.019v2.006h3.47v8.47h2.388M31.1 28.911c-.509.541-1.305 1.05-1.814 1.05-.35-.986-.383-3.756-.383-5.858.51-.573 1.338-1.05 1.943-1.05.159 0 .255.286.255.827v5.031Zm3.407.923c-.413-1.114-.382-2.579-.382-4.043 0-1.433.096-2.802.637-3.917-1.114 0-2.579-.286-3.789-.764l-5.094 2.738c.095 1.147.159 2.357.159 3.503 0 1.369-.223 2.802-.669 3.916.987 0 2.675.414 3.662.796.478-.732 1.72-1.91 2.356-2.229a4.358 4.358 0 0 1-.414 1.56c.987 0 2.93.35 3.917.67.095-.701.19-1.274.54-1.975-.222 0-.668-.095-.923-.255ZM29.675 8.01 12.96 33.707l1.847 1.305L31.49 9.19l-1.815-1.18" fill="#1A1918" fill-rule="evenodd"/></svg>